<?xml version="1.0" encoding="UTF-8" standalone="no"?>
<!DOCTYPE svg PUBLIC "-//W3C//DTD SVG 1.1//EN" "http://www.w3.org/Graphics/SVG/1.1/DTD/svg11.dtd">
<svg width="100%" height="100%" viewBox="0 0 256 256" version="1.1" xmlns="http://www.w3.org/2000/svg" xmlns:xlink="http://www.w3.org/1999/xlink" xml:space="preserve" xmlns:serif="http://www.serif.com/" style="fill-rule:evenodd;clip-rule:evenodd;stroke-linejoin:round;stroke-miterlimit:2;">
    <g transform="matrix(0.834711,0,0,0.834711,157.586777,-207.516529)">
        <path d="M-22.667,347.115L-63,370.394L-103.333,347.115L-63,323.836L-22.667,347.115ZM17.667,370.394L17.667,416.952L58,393.673L17.667,370.394ZM-183.959,393.673L-143.626,416.952L-143.626,370.394L-183.959,393.673ZM-63,463.509L-22.667,486.788L17.666,463.509L-22.667,440.23L17.666,416.951L-22.667,393.673L-63,416.952L-103.333,393.673L-143.666,416.952L-103.333,440.231L-143.666,463.51L-103.333,486.789L-63,463.509Z" style="fill:rgb(21,36,74);fill-rule:nonzero;"/>
        <path d="M17.625,416.952L17.625,463.51L-22.708,440.231L17.625,416.952ZM-63,416.952L-63,370.394L-103.333,347.115L-103.333,393.673L-63,416.952ZM-103.333,254L-103.333,300.558L-63,277.279L-103.333,254ZM-22.667,393.673L17.666,416.952L17.666,370.394L58,393.673L58,347.115L17.667,323.836L17.667,277.278L-22.667,254L-22.667,300.558L-63,277.279L-63,323.837L-22.667,347.116L-22.667,393.673Z" style="fill:url(#_Linear1);fill-rule:nonzero;"/>
        <path d="M-22.667,393.674L-63,416.952L-63,370.394L-22.667,347.115L-22.667,393.674Z" style="fill:url(#_Linear2);"/>
        <path d="M-103.292,440.231L-143.625,463.51L-143.625,416.952L-103.292,440.231Z" style="fill:url(#_Linear3);"/>
        <path d="M-143.667,416.952L-143.667,370.394L-184,393.673L-184,347.115L-143.666,323.837L-143.666,277.279L-103.333,254L-103.333,300.557L-63,277.279L-63,323.836L-103.333,347.115L-103.334,393.673L-143.667,416.952Z" style="fill:url(#_Linear4);"/>
        <path d="M-63,277.279L-22.667,300.558L-22.667,254L-63,277.279Z" style="fill:url(#_Linear5);"/>
    </g>
    <g transform="matrix(0.471865,0,0,0.471865,-24.731113,62.324298)">
        <path d="M483.987,124.532L511.231,124.534L511.231,100.697C511.242,93.79 513.791,83.683 527.714,81.596L527.714,16.908C527.714,-10.483 509.668,-32.767 482.278,-32.767L401.922,-32.781C390.586,-32.828 390.393,-52.741 401.653,-52.818C411.328,-52.884 465.023,-52.767 482.278,-52.767C520.696,-52.767 547.714,-21.511 547.714,16.908L547.714,81.582C563.339,83.874 564.198,91.406 564.198,100.34L564.198,124.952C564.687,125.061 575.748,125.19 576.19,125.339C582.825,127.576 584.255,134.217 584.255,142.052L584.255,382.546C584.255,392.213 576.405,400.064 566.738,400.064L326.243,400.064C316.576,400.064 308.726,392.213 308.726,382.546L308.726,382.53L281.63,382.53C272.82,382.53 265.175,382.18 262.667,366.923C252.991,366.794 254.396,366.873 237.141,366.873C198.723,366.873 167.467,335.617 167.467,297.198L167.467,253.716C167.646,243.443 187.504,243.213 187.467,253.702L187.467,297.198C187.467,324.589 209.751,346.873 237.141,346.873L262.398,346.887C264.539,330.834 272.179,329.563 281.272,329.563L308.726,329.563L308.726,223.977L483.987,124.532Z" style="fill:rgb(49,120,198);"/>
    </g>
    <g transform="matrix(1.054559,0,0,1.054559,116.684326,115.336874)">
        <path d="M74.262,99.468L74.262,113.494C76.535,114.662 79.222,115.539 82.325,116.123C85.427,116.708 88.698,117 92.135,117C95.486,117 98.668,116.679 101.683,116.036C104.699,115.393 107.342,114.334 109.615,112.858C111.887,111.382 113.686,109.454 115.012,107.072C116.337,104.691 117,101.747 117,98.241C117,95.699 116.621,93.471 115.864,91.557C115.106,89.643 114.014,87.941 112.586,86.45C111.159,84.96 109.447,83.623 107.452,82.44C105.456,81.257 103.206,80.139 100.7,79.087C98.865,78.327 97.219,77.59 95.762,76.874C94.306,76.158 93.067,75.427 92.048,74.682C91.028,73.937 90.242,73.148 89.688,72.315C89.135,71.483 88.858,70.54 88.858,69.488C88.858,68.524 89.105,67.655 89.601,66.88C90.096,66.106 90.795,65.441 91.698,64.886C92.601,64.331 93.708,63.9 95.019,63.593C96.33,63.286 97.787,63.133 99.389,63.133C100.555,63.133 101.785,63.221 103.082,63.396C104.378,63.571 105.682,63.841 106.993,64.207C108.304,64.572 109.578,65.032 110.817,65.587C112.055,66.143 113.198,66.785 114.247,67.516L114.247,54.411C112.12,53.593 109.797,52.986 107.277,52.592C104.757,52.197 101.866,52 98.603,52C95.282,52 92.135,52.358 89.164,53.074C86.192,53.79 83.577,54.907 81.32,56.427C79.062,57.946 77.277,59.882 75.967,62.234C74.656,64.587 74,67.399 74,70.672C74,74.85 75.202,78.415 77.605,81.366C80.009,84.317 83.658,86.816 88.552,88.861C90.475,89.65 92.266,90.424 93.927,91.184C95.587,91.944 97.022,92.733 98.231,93.551C99.44,94.369 100.394,95.26 101.093,96.225C101.793,97.189 102.142,98.285 102.142,99.512C102.142,100.418 101.924,101.258 101.487,102.032C101.05,102.806 100.387,103.478 99.499,104.048C98.61,104.618 97.503,105.064 96.177,105.385C94.852,105.706 93.301,105.867 91.523,105.867C88.494,105.867 85.493,105.334 82.521,104.267C79.55,103.201 76.797,101.601 74.262,99.468ZM50.703,64.554L69,64.554L69,53L18,53L18,64.554L36.208,64.554L36.208,116L50.703,116L50.703,64.554Z" style="fill:white;"/>
    </g>
    <defs>
        <linearGradient id="_Linear1" x1="0" y1="0" x2="1" y2="0" gradientUnits="userSpaceOnUse" gradientTransform="matrix(163.6911,93.983,-93.983,163.6911,-124.5723,288.6794)"><stop offset="0" style="stop-color:rgb(28,104,236);stop-opacity:1"/><stop offset="1" style="stop-color:rgb(0,233,223);stop-opacity:1"/></linearGradient>
        <linearGradient id="_Linear2" x1="0" y1="0" x2="1" y2="0" gradientUnits="userSpaceOnUse" gradientTransform="matrix(154.358,88.999,-88.999,154.358,-178.1252,303.9923)"><stop offset="0" style="stop-color:rgb(255,60,42);stop-opacity:1"/><stop offset="1" style="stop-color:rgb(255,210,21);stop-opacity:1"/></linearGradient>
        <linearGradient id="_Linear3" x1="0" y1="0" x2="1" y2="0" gradientUnits="userSpaceOnUse" gradientTransform="matrix(154.358,88.999,-88.999,154.358,-178.1252,303.9923)"><stop offset="0" style="stop-color:rgb(255,60,42);stop-opacity:1"/><stop offset="1" style="stop-color:rgb(255,210,21);stop-opacity:1"/></linearGradient>
        <linearGradient id="_Linear4" x1="0" y1="0" x2="1" y2="0" gradientUnits="userSpaceOnUse" gradientTransform="matrix(154.358,88.999,-88.999,154.358,-178.1252,303.9923)"><stop offset="0" style="stop-color:rgb(255,60,42);stop-opacity:1"/><stop offset="1" style="stop-color:rgb(255,210,21);stop-opacity:1"/></linearGradient>
        <linearGradient id="_Linear5" x1="0" y1="0" x2="1" y2="0" gradientUnits="userSpaceOnUse" gradientTransform="matrix(154.358,88.999,-88.999,154.358,-178.1252,303.9923)"><stop offset="0" style="stop-color:rgb(255,60,42);stop-opacity:1"/><stop offset="1" style="stop-color:rgb(255,210,21);stop-opacity:1"/></linearGradient>
    </defs>
</svg>
